<svg width="160" height="70" viewBox="0 0 160 70" fill="none" xmlns="http://www.w3.org/2000/svg">
<g clip-path="url(#clip0_33_13586)">
<path d="M40.0711 23.2004C39.4695 22.9377 38.9255 22.559 38.4703 22.086C38.0151 21.613 37.6576 21.0549 37.4182 20.4437C37.1787 19.8325 37.062 19.18 37.0748 18.5236C37.0876 17.8673 37.2296 17.2199 37.4927 16.6185C39.566 11.8734 45.9642 9.71057 45.9642 9.71057C45.9642 9.71057 48.7248 15.8746 46.653 20.6205C46.3904 21.2221 46.0118 21.7662 45.5388 22.2215C45.0659 22.6768 44.5078 23.0344 43.8966 23.274C43.2854 23.5136 42.6329 23.6304 41.9765 23.6178C41.3202 23.6052 40.6727 23.4633 40.0711 23.2004ZM49.7595 46.8225C54.5046 48.8958 60.6694 46.1337 60.6694 46.1337C60.6694 46.1337 58.5073 39.7355 53.7614 37.6622C53.16 37.3992 52.5126 37.2573 51.8563 37.2446C51.2 37.2318 50.5476 37.3485 49.9363 37.5879C49.3251 37.8274 48.7671 38.1849 48.2941 38.6401C47.8211 39.0952 47.4423 39.6391 47.1796 40.2406C46.9167 40.8421 46.775 41.4895 46.7624 42.1458C46.7498 42.8021 46.8666 43.4545 47.1062 44.0656C47.3458 44.6768 47.7035 45.2347 48.1587 45.7076C48.614 46.1805 49.1579 46.5591 49.7595 46.8218V46.8225ZM37.4223 53.285C39.3119 58.1066 45.6221 60.5136 45.6221 60.5136C45.6221 60.5136 48.6177 54.4605 46.728 49.6381C46.4889 49.0269 46.1316 48.4688 45.6766 47.9956C45.2217 47.5225 44.678 47.1436 44.0765 46.8806C43.4751 46.6176 42.8278 46.4757 42.1715 46.463C41.5152 46.4503 40.8629 46.567 40.2517 46.8064C39.6405 47.0459 39.0825 47.4034 38.6095 47.8586C38.1365 48.3138 37.7579 48.8577 37.4951 49.4592C37.2324 50.0608 37.0907 50.7081 37.0782 51.3644C37.0657 52.0208 37.1826 52.6731 37.4223 53.2842V53.285ZM53.8892 32.9599C58.7109 31.0703 61.1179 24.7601 61.1179 24.7601C61.1179 24.7601 55.0649 21.7646 50.2432 23.6542C49.632 23.8935 49.0739 24.2508 48.6008 24.7057C48.1277 25.1607 47.7489 25.7044 47.4859 26.3058C47.2229 26.9072 47.0811 27.5545 47.0683 28.2108C47.0555 28.867 47.1721 29.5194 47.4114 30.1305C47.651 30.7417 48.0086 31.2996 48.4638 31.7725C48.919 32.2454 49.4629 32.624 50.0644 32.8867C50.666 33.1494 51.3134 33.2909 51.9696 33.3034C52.6259 33.3158 53.2782 33.1989 53.8892 32.9592V32.9599ZM30.1585 23.2011C30.7601 22.9384 31.304 22.5598 31.7592 22.0868C32.2144 21.6138 32.572 21.0557 32.8115 20.4444C33.0509 19.8332 33.1676 19.1808 33.1548 18.5245C33.142 17.8681 33 17.2207 32.7369 16.6193C30.6636 11.8742 24.2654 9.71132 24.2654 9.71132C24.2654 9.71132 21.5048 15.8753 23.5766 20.6212C23.8392 21.2229 24.2178 21.7669 24.6908 22.2222C25.1638 22.6775 25.7219 23.0351 26.3331 23.2747C26.9443 23.5142 27.5968 23.6309 28.2532 23.6182C28.9095 23.6054 29.557 23.4634 30.1585 23.2004V23.2011ZM23.0485 40.2429C22.7857 39.6413 22.407 39.0975 21.934 38.6423C21.461 38.1872 20.9029 37.8297 20.2917 37.5902C19.6805 37.3508 19.028 37.2341 18.3717 37.2468C17.7154 37.2596 17.068 37.4015 16.4666 37.6645C11.7215 39.7378 9.55866 46.136 9.55866 46.136C9.55866 46.136 15.7227 48.8966 20.4685 46.8248C21.0703 46.5622 21.6145 46.1835 22.0698 45.7105C22.5252 45.2374 22.8829 44.6794 23.1225 44.0681C23.3621 43.4567 23.4789 42.8042 23.4662 42.1477C23.4535 41.4912 23.3115 40.8437 23.0485 40.2421V40.2429ZM29.9779 46.8095C29.3667 46.5702 28.7143 46.4535 28.0581 46.4663C27.4019 46.479 26.7546 46.621 26.1532 46.884C25.5518 47.1469 25.008 47.5257 24.5531 47.9988C24.0981 48.4719 23.7408 49.03 23.5016 49.6412C21.612 54.4628 24.6074 60.5167 24.6074 60.5167C24.6074 60.5167 30.9176 58.1097 32.8073 53.2881C33.0474 52.6771 33.1648 52.0247 33.1527 51.3684C33.1407 50.712 32.9994 50.0644 32.737 49.4626C32.4746 48.8608 32.0962 48.3167 31.6235 47.8612C31.1507 47.4057 30.5928 47.0478 29.9817 46.8079L29.9779 46.8095ZM22.8158 30.1305C23.0553 29.5194 23.172 28.867 23.1593 28.2108C23.1465 27.5545 23.0046 26.9072 22.7417 26.3057C22.4787 25.7043 22.0998 25.1606 21.6266 24.7056C21.1535 24.2507 20.5954 23.8934 19.9841 23.6542C15.1625 21.7646 9.10938 24.7601 9.10938 24.7601C9.10938 24.7601 11.5156 31.0703 16.338 32.9599C16.9492 33.1997 17.6017 33.3167 18.2581 33.3042C18.9145 33.2917 19.5621 33.15 20.1637 32.8871C20.7653 32.6243 21.3093 32.2455 21.7645 31.7724C22.2197 31.2993 22.5772 30.7411 22.8166 30.1297L22.8158 30.1305Z" fill="#F5F5F5"/>
<path opacity="0.5" d="M34.9996 69.9999C33.8387 69.9999 32.7254 69.5388 31.9046 68.7179C31.0838 67.8971 30.6226 66.7838 30.6226 65.623C30.6226 61.0868 34.9996 57.1071 34.9996 57.1071C34.9996 57.1071 39.3765 61.0868 39.3765 65.623C39.3763 66.7837 38.9151 67.897 38.0943 68.7178C37.2735 69.5386 36.1604 69.9997 34.9996 69.9999ZM34.9996 0C33.8387 0 32.7254 0.461137 31.9046 1.28198C31.0838 2.10282 30.6226 3.21611 30.6226 4.37696C30.6226 8.91311 34.9996 12.8928 34.9996 12.8928C34.9996 12.8928 39.3765 8.91311 39.3765 4.37696C39.3765 3.21611 38.9154 2.10282 38.0946 1.28198C37.2737 0.461137 36.1604 0 34.9996 0ZM59.7483 53.5583C56.5408 50.35 50.6315 50.6316 50.6315 50.6316C50.6315 50.6316 50.35 56.5408 53.5583 59.7483C54.3792 60.5692 55.4926 61.0304 56.6536 61.0304C57.8146 61.0304 58.9281 60.5692 59.7491 59.7483C60.1554 59.3418 60.4777 58.8592 60.6975 58.3281C60.9174 57.797 61.0304 57.2278 61.0303 56.653C61.0301 56.0782 60.9168 55.509 60.6967 54.978C60.4766 54.447 60.154 53.9646 59.7475 53.5583H59.7483ZM10.2509 10.2509C9.42995 11.0718 8.96879 12.1853 8.96879 13.3463C8.96879 14.5073 9.42995 15.6207 10.2509 16.4417C13.4592 19.6492 19.3675 19.3684 19.3675 19.3684C19.3675 19.3684 19.6492 13.4591 16.4409 10.2516C15.6201 9.43083 14.5068 8.96968 13.346 8.96954C12.1852 8.9694 11.0719 9.43028 10.2509 10.2509ZM65.6222 30.6226C61.0861 30.6226 57.1063 34.9996 57.1063 34.9996C57.1063 34.9996 61.0861 39.3765 65.6222 39.3765C66.1971 39.3766 66.7663 39.2635 67.2974 39.0436C67.8285 38.8237 68.3111 38.5013 68.7177 38.0948C69.1242 37.6884 69.4467 37.2059 69.6667 36.6748C69.8867 36.1437 69.9999 35.5744 69.9999 34.9996C69.9999 34.4247 69.8867 33.8555 69.6667 33.3244C69.4467 32.7933 69.1242 32.3108 68.7177 31.9043C68.3111 31.4979 67.8285 31.1755 67.2974 30.9556C66.7663 30.7357 66.1971 30.6225 65.6222 30.6226ZM0 34.9996C0 36.1604 0.461137 37.2737 1.28198 38.0946C2.10282 38.9154 3.21611 39.3765 4.37696 39.3765C8.91311 39.3765 12.8928 34.9996 12.8928 34.9996C12.8928 34.9996 8.91311 30.6226 4.37696 30.6226C3.21611 30.6226 2.10282 31.0838 1.28198 31.9046C0.461137 32.7254 0 33.8387 0 34.9996ZM53.5583 10.2509C50.3507 13.4584 50.6315 19.3675 50.6315 19.3675C50.6315 19.3675 56.5408 19.6492 59.7483 16.4409C60.5692 15.6199 61.0304 14.5066 61.0304 13.3456C61.0304 12.1846 60.5692 11.0711 59.7483 10.2501C58.9273 9.42954 57.8139 8.96865 56.6531 8.96879C55.4923 8.96894 54.3791 9.43008 53.5583 10.2509ZM10.2509 59.7483C11.0718 60.5692 12.1853 61.0304 13.3463 61.0304C14.5073 61.0304 15.6207 60.5692 16.4417 59.7483C19.6492 56.5408 19.3683 50.6316 19.3683 50.6316C19.3683 50.6316 13.4591 50.35 10.2516 53.5583C9.84511 53.9646 9.52263 54.4471 9.3026 54.9781C9.08256 55.5091 8.96933 56.0783 8.96926 56.6531C8.96919 57.2279 9.08232 57.7971 9.30223 58.3282C9.52213 58.8592 9.84446 59.3418 10.2509 59.7483Z" fill="#F5F5F5"/>
<path d="M94.6861 10.1387V23.8634H92.084V12.2303H89.3089V17.4958C89.3089 22.0771 88.5481 24.1114 86.3623 24.1114C85.8309 24.1266 85.2999 24.069 84.7842 23.94V22.0205C85.0578 22.088 85.3389 22.1199 85.6207 22.1154C86.419 22.1154 86.742 21.6975 86.742 16.7167V10.1394L94.6861 10.1387Z" fill="#F5F5F5"/>
<path d="M99.0922 10.1384V15.2707C99.1249 16.8926 99.0169 18.5144 98.7693 20.1176H98.7883L102.591 10.1376H105.404V23.8624H102.971V18.6727C102.914 17.0754 103.022 15.4766 103.294 13.9016H103.275L99.4726 23.8624H96.6592V10.1376L99.0922 10.1384Z" fill="#F5F5F5"/>
<path d="M114.531 10.1384V12.2293H109.93V23.8624H107.328V10.1376L114.531 10.1384Z" fill="#F5F5F5"/>
<path d="M117.604 10.1384H121.102L124.143 23.8632H121.33L120.684 20.289H117.738L116.92 23.8632H114.126L117.604 10.1384ZM120.359 18.2556L119.314 11.8681L118.06 18.2556H120.359Z" fill="#F5F5F5"/>
<path d="M85.2753 30.8025C85.2753 28.407 86.7767 26.6016 89.362 26.6016C91.2057 26.6016 93.4681 27.4756 93.4681 30.2515C93.496 30.9123 93.3041 31.5637 92.9223 32.1038C92.5405 32.6439 91.9905 33.0422 91.3582 33.2363C92.7273 33.5784 93.6579 34.7004 93.6579 36.7722C93.6579 39.5274 92.1564 40.8973 89.4372 40.8973C87.194 40.8973 85.0654 39.871 85.0654 36.9245H87.5911C87.5911 37.875 87.9737 38.8064 89.2824 38.8064C90.5376 38.8064 90.993 37.9508 90.993 36.5257C90.993 34.9101 90.1756 34.3208 89.0926 34.3208H88.5408V32.3631H89.0926C89.3258 32.3839 89.5608 32.3526 89.7804 32.2715C90 32.1904 90.1989 32.0615 90.3626 31.8942C90.5263 31.7268 90.6508 31.5252 90.727 31.3038C90.8032 31.0825 90.8292 30.8469 90.8032 30.6143C90.8032 29.702 90.4612 28.6947 89.3583 28.6947C88.332 28.6947 87.7992 29.5696 87.7992 30.8048L85.2753 30.8025Z" fill="#F5F5F5"/>
<path d="M102.772 26.8488V28.9396H98.0383V32.1326H102.353V34.2235H98.0383V38.4819H102.772V40.5728H95.4346V26.848L102.772 26.8488Z" fill="#F5F5F5"/>
<path d="M114.066 26.8488V40.5735H111.464V28.9404H108.688V34.206C108.688 38.7873 107.928 40.8215 105.741 40.8215C105.21 40.8366 104.68 40.7789 104.164 40.65V38.7299C104.438 38.7974 104.719 38.8292 105.001 38.8247C105.799 38.8247 106.122 38.4069 106.122 33.4261V26.8488H114.066Z" fill="#F5F5F5"/>
<path d="M123.377 26.8488V28.9396H118.644V32.1326H122.959V34.2235H118.644V38.4819H123.377V40.5728H116.04V26.848L123.377 26.8488Z" fill="#F5F5F5"/>
<path d="M127.679 32.1334H131.123V26.8525H133.725V40.5773H131.123V34.225H127.679V40.5773H125.077V26.8525H127.679V32.1334Z" fill="#F5F5F5"/>
<path d="M138.25 32.1334H140.436C142.565 32.1334 143.933 34.2435 143.933 36.1828C143.933 38.8248 142.736 40.5743 140.664 40.5743H135.646V26.8495H138.248L138.25 32.1334ZM138.25 38.6158H139.748C140.717 38.6158 141.269 38.0265 141.269 36.4867C141.269 35.1366 140.717 34.2243 139.748 34.2243H138.246L138.25 38.6158ZM148.515 40.5735H145.913V26.8488H148.515V40.5735Z" fill="#F5F5F5"/>
<path d="M153.212 26.8488L154.98 31.3161L156.843 26.8488H159.77L156.387 33.521L159.884 40.5735H156.976L154.98 35.5169L152.908 40.5735H150.057L153.364 33.521L150.19 26.8488H153.212Z" fill="#F5F5F5"/>
<path d="M92.7464 43.5584V45.5161H88.0701V48.843H90.2561C92.3852 48.843 93.7535 50.9531 93.7535 52.8917C93.7535 55.5344 92.5558 57.2824 90.484 57.2824H85.4658V43.5576L92.7464 43.5584ZM88.0701 55.3254H89.5718C90.5415 55.3254 91.0926 54.7361 91.0926 53.1963C91.0926 51.847 90.5415 50.934 89.5718 50.934H88.0701V55.3254Z" fill="#F5F5F5"/>
<path d="M98.1353 57.2831H95.5332V43.5583H100.457C102.681 43.5583 104.068 45.3638 104.068 47.5695C104.068 49.8319 102.642 51.6946 100.418 51.6946H98.1377L98.1353 57.2831ZM98.1353 49.6604H99.4464C100.758 49.6604 101.404 48.9188 101.404 47.607C101.443 47.3384 101.419 47.0646 101.335 46.8065C101.252 46.5484 101.11 46.3128 100.921 46.1182C100.732 45.9235 100.5 45.7749 100.245 45.6837C99.989 45.5924 99.716 45.561 99.4464 45.5918H98.1353V49.6604Z" fill="#F5F5F5"/>
<path d="M113.178 43.5583V45.6493H108.445V48.843H112.759V50.934H108.445V55.1923H113.178V57.2831H105.841V43.5583H113.178Z" fill="#F5F5F5"/>
<path d="M117.481 48.843H120.925V43.5621H123.527V57.2869H120.925V50.9347H117.481V57.2869H114.879V43.5621H117.481V48.843Z" fill="#F5F5F5"/>
<path d="M135.038 43.5584V55.1915H135.874V60.0392H133.365V57.284H127.681V60.0392H125.172V55.1915H125.989C126.902 53.1764 127.244 51.6174 127.244 47.8351V43.5576L135.038 43.5584ZM129.81 45.6493V48.7665C129.81 51.922 129.372 53.481 128.574 55.1954H132.433V45.6524L129.81 45.6493Z" fill="#F5F5F5"/>
<path d="M141.83 43.3112C144.472 43.3112 146.24 44.5089 146.24 48.0065V52.9873C146.24 56.4849 144.472 57.6069 141.83 57.6069C139.228 57.6069 137.363 56.4466 137.363 52.9873V48.0065C137.363 44.5472 139.226 43.3112 141.83 43.3112ZM140.024 47.7026V53.3102C140.024 54.7361 140.594 55.5152 141.83 55.5152C142.952 55.5152 143.579 54.7544 143.579 53.3102V47.7409C143.579 46.2776 142.952 45.4028 141.83 45.4028C140.594 45.402 140.024 46.2385 140.024 47.7026Z" fill="#F5F5F5"/>
<path d="M148.054 43.5583H152.864C153.315 43.5166 153.77 43.5743 154.197 43.7271C154.624 43.88 155.012 44.1243 155.335 44.443C155.657 44.7618 155.906 45.1472 156.063 45.5723C156.221 45.9973 156.284 46.4518 156.247 46.9037C156.247 48.2155 155.544 49.6787 154.404 49.9068C155.754 50.4579 156.438 51.4276 156.438 53.2146C156.438 55.5872 155.412 57.2823 153.3 57.2823H148.054L148.054 43.5583ZM150.657 49.1277H152.025C153.165 49.1277 153.641 48.4435 153.641 47.2649C153.641 46.1054 153.242 45.516 152.063 45.516H150.657V49.1277ZM150.657 55.327H152.33C153.299 55.327 153.775 54.7377 153.775 53.1978C153.775 51.8485 153.299 51.0877 152.33 51.0877H150.657V55.327Z" fill="#F5F5F5"/>
</g>
<defs>
<clipPath id="clip0_33_13586">
<rect width="159.883" height="70" fill="white"/>
</clipPath>
</defs>
</svg>
