<svg width="60" height="60" viewBox="0 0 60 60" fill="none" xmlns="http://www.w3.org/2000/svg">
<g clip-path="url(#clip0_193_8476)">
<path fill-rule="evenodd" clip-rule="evenodd" d="M0 0H60V60H0V0Z" fill="#224720"/>
<mask id="mask0_193_8476" style="mask-type:alpha" maskUnits="userSpaceOnUse" x="10" y="19" width="38" height="22">
<path d="M47.2921 38.5585C47.3369 38.6547 47.3819 38.825 47.4275 39.0686C47.4721 39.3128 47.4693 39.5312 47.4177 39.7237C47.3661 39.916 47.2059 40.0928 46.9362 40.2533C46.6671 40.4135 46.2876 40.4942 45.8 40.4942L40.8701 40.5711C40.5615 40.6353 40.2021 40.6032 39.792 40.4749C39.3811 40.3465 39.0472 40.2053 38.7901 40.0511L38.4051 39.8199C38.0201 39.55 37.5708 39.1395 37.057 38.5873C36.5436 38.0354 36.1039 37.5382 35.738 37.095C35.3719 36.6522 34.9804 36.2797 34.5631 35.978C34.1454 35.676 33.7828 35.5766 33.4747 35.6792C33.4362 35.6924 33.3851 35.7143 33.3212 35.7466C33.2568 35.7787 33.1472 35.8721 32.9932 36.026C32.8396 36.1797 32.7016 36.3692 32.5793 36.5938C32.457 36.8187 32.3476 37.1525 32.2516 37.5953C32.1555 38.0381 32.1135 38.5356 32.1267 39.0876C32.1267 39.2799 32.1043 39.4567 32.0592 39.6171C32.0147 39.7773 31.9665 39.8964 31.9149 39.973L31.8383 40.0695C31.607 40.3133 31.2667 40.4545 30.8175 40.4934H28.6028C27.6912 40.5443 26.754 40.4387 25.7911 40.1753C24.8281 39.9121 23.984 39.5719 23.2585 39.1549C22.5331 38.7373 21.872 38.3138 21.2749 37.8835C20.6779 37.4535 20.2254 37.0844 19.9173 36.7761L19.4357 36.314C19.3074 36.1857 19.1308 35.9934 18.9059 35.7363C18.6814 35.4797 18.2224 34.8954 17.5291 33.9838C16.8358 33.0726 16.1553 32.103 15.4877 31.0758C14.8203 30.0493 14.0338 28.6945 13.1287 27.0127C12.2236 25.3308 11.3859 23.5848 10.6156 21.7744C10.5385 21.5691 10.5 21.3958 10.5 21.2545C10.5 21.1132 10.5194 21.0105 10.5579 20.9462L10.635 20.8308C10.8277 20.5869 11.1935 20.4647 11.7328 20.4647L17.0095 20.4264C17.1637 20.452 17.3112 20.4935 17.4525 20.5515C17.5936 20.6094 17.6965 20.6639 17.7605 20.7152L17.8569 20.7731C18.0623 20.9144 18.2164 21.1196 18.319 21.3892C18.5757 22.0312 18.8709 22.6957 19.205 23.3827C19.5388 24.0695 19.8018 24.5928 19.9944 24.9521L20.3025 25.5108C20.6748 26.2811 21.0343 26.9487 21.3808 27.5135C21.7276 28.0784 22.039 28.5181 22.3151 28.8328C22.5911 29.1474 22.8575 29.3944 23.1142 29.5742C23.3709 29.754 23.589 29.844 23.7689 29.844C23.9486 29.844 24.1221 29.8114 24.289 29.7475C24.3145 29.7348 24.3466 29.7025 24.3851 29.6512C24.4237 29.5999 24.5007 29.4587 24.6163 29.2276C24.7318 28.9966 24.8184 28.6949 24.8764 28.3225C24.9343 27.9502 24.995 27.4303 25.0593 26.7625C25.1234 26.095 25.1234 25.2926 25.0593 24.3552C25.0338 23.8419 24.9759 23.3733 24.8861 22.9497C24.7962 22.5261 24.7063 22.2307 24.6163 22.0638L24.5007 21.8325C24.1797 21.396 23.6342 21.12 22.8638 21.0045C22.6969 20.9792 22.7292 20.825 22.9603 20.5424C23.1785 20.2987 23.4224 20.1059 23.692 19.9649C24.3725 19.6311 25.9068 19.4769 28.2947 19.5025C29.3477 19.5154 30.2143 19.5988 30.8948 19.7528C31.1512 19.8171 31.3667 19.9037 31.5399 20.0128C31.7129 20.1221 31.8447 20.2761 31.9347 20.475C32.0243 20.6742 32.0922 20.8797 32.1364 21.0913C32.1812 21.3033 32.2039 21.5953 32.2039 21.9676C32.2039 22.34 32.1978 22.6931 32.1847 23.027C32.1716 23.3604 32.1559 23.8131 32.1364 24.3844C32.1173 24.9558 32.1078 25.4853 32.1078 25.9733C32.1078 26.1145 32.1018 26.3839 32.0885 26.7821C32.0755 27.1801 32.0727 27.4885 32.0787 27.7066C32.0852 27.925 32.1078 28.1846 32.1461 28.4866C32.1847 28.7883 32.2583 29.0387 32.3677 29.2378C32.4767 29.4367 32.6212 29.594 32.8008 29.7096C32.9039 29.7352 33.0128 29.7608 33.1285 29.7867C33.2439 29.8125 33.4106 29.7419 33.629 29.5747C33.8476 29.4077 34.0911 29.1865 34.361 28.9104C34.6304 28.6346 34.9642 28.2043 35.3621 27.6203C35.7605 27.0361 36.1968 26.3461 36.6719 25.55C37.4424 24.2148 38.1289 22.7704 38.7328 21.2169C38.784 21.0886 38.8482 20.9759 38.9249 20.8799C39.002 20.7836 39.0726 20.7162 39.1368 20.6779L39.2134 20.62L39.3099 20.5718C39.3099 20.5718 39.3935 20.5524 39.5604 20.5138C39.7276 20.4752 39.8559 20.4722 39.9457 20.5041L45.4919 20.4658C45.9928 20.4016 46.4035 20.4176 46.7248 20.5138C47.0454 20.6103 47.2444 20.716 47.3215 20.8317L47.4362 21.0237C47.7317 21.8455 46.7687 23.7325 44.5474 26.6856C44.2394 27.0965 43.8223 27.6419 43.2957 28.3225C42.2946 29.6066 41.7164 30.447 41.5625 30.845C41.3446 31.3717 41.4339 31.8916 41.8325 32.4052C42.0504 32.6748 42.5707 33.2014 43.3923 33.9846H43.4117L43.431 34.0039L43.4502 34.0228L43.4884 34.0613C45.2987 35.7433 46.525 37.1619 47.1668 38.3178C47.2055 38.3819 47.2473 38.4619 47.2921 38.5585Z" fill="white"/>
</mask>
<g mask="url(#mask0_193_8476)">
<path fill-rule="evenodd" clip-rule="evenodd" d="M1.31738 12.3118H55.9347V49.9152H1.31738V12.3118Z" fill="#F5F5F5"/>
</g>
</g>
<defs>
<clipPath id="clip0_193_8476">
<rect width="60" height="60" fill="white"/>
</clipPath>
</defs>
</svg>
