<svg  viewBox="0 0 415 415" fill="none" xmlns="http://www.w3.org/2000/svg">
<path d="M238.002 137.349C234.429 135.791 231.198 133.544 228.495 130.738C225.792 127.931 223.669 124.62 222.247 120.994C220.825 117.367 220.132 113.496 220.208 109.602C220.284 105.708 221.127 101.867 222.689 98.2991C235.002 70.1466 272.999 57.3145 272.999 57.3145C272.999 57.3145 289.393 93.8855 277.089 122.043C275.53 125.612 273.281 128.84 270.473 131.541C267.664 134.243 264.35 136.365 260.72 137.786C257.09 139.208 253.215 139.901 249.317 139.826C245.419 139.751 241.574 138.909 238.002 137.349ZM295.538 277.499C323.717 289.8 360.328 273.412 360.328 273.412C360.328 273.412 347.488 235.452 319.304 223.151C315.732 221.591 311.888 220.749 307.99 220.673C304.093 220.598 300.218 221.29 296.588 222.71C292.958 224.131 289.645 226.252 286.835 228.953C284.026 231.653 281.777 234.88 280.216 238.449C278.656 242.018 277.814 245.859 277.739 249.752C277.664 253.646 278.358 257.517 279.781 261.143C281.204 264.768 283.328 268.078 286.032 270.884C288.735 273.69 291.965 275.936 295.538 277.495V277.499ZM222.271 315.841C233.493 344.447 270.967 358.728 270.967 358.728C270.967 358.728 288.757 322.815 277.535 294.204C276.115 290.578 273.993 287.266 271.291 284.459C268.589 281.652 265.36 279.404 261.789 277.844C258.217 276.284 254.373 275.442 250.475 275.366C246.578 275.291 242.704 275.983 239.074 277.404C235.445 278.824 232.131 280.946 229.322 283.646C226.513 286.347 224.264 289.574 222.704 293.143C221.143 296.712 220.302 300.552 220.228 304.446C220.153 308.34 220.848 312.211 222.271 315.836V315.841ZM320.063 195.253C348.697 184.041 362.992 146.603 362.992 146.603C362.992 146.603 327.045 128.831 298.411 140.042C294.781 141.462 291.467 143.581 288.657 146.281C285.847 148.98 283.597 152.206 282.036 155.774C280.474 159.342 279.632 163.182 279.556 167.076C279.48 170.969 280.172 174.84 281.594 178.466C283.016 182.092 285.14 185.402 287.843 188.208C290.546 191.013 293.776 193.26 297.349 194.818C300.921 196.376 304.766 197.216 308.663 197.29C312.561 197.364 316.434 196.67 320.063 195.248V195.253ZM179.134 137.354C182.706 135.795 185.937 133.549 188.64 130.742C191.343 127.936 193.467 124.625 194.889 120.998C196.311 117.372 197.004 113.501 196.928 109.607C196.852 105.713 196.009 101.872 194.446 98.3036C182.134 70.151 144.137 57.3189 144.137 57.3189C144.137 57.3189 127.742 93.89 140.046 122.047C141.606 125.617 143.854 128.845 146.663 131.546C149.472 134.247 152.786 136.369 156.416 137.79C160.046 139.211 163.921 139.904 167.819 139.828C171.717 139.753 175.562 138.91 179.134 137.349V137.354ZM136.91 238.462C135.349 234.893 133.1 231.666 130.291 228.966C127.482 226.266 124.168 224.145 120.538 222.724C116.908 221.304 113.034 220.611 109.136 220.687C105.238 220.762 101.394 221.605 97.822 223.165C69.6424 235.466 56.798 273.426 56.798 273.426C56.798 273.426 93.4042 289.805 121.588 277.513C125.162 275.955 128.394 273.708 131.098 270.901C133.802 268.095 135.926 264.784 137.349 261.157C138.772 257.53 139.466 253.658 139.39 249.764C139.315 245.869 138.472 242.027 136.91 238.458V238.462ZM178.061 277.422C174.432 276.002 170.557 275.31 166.66 275.386C162.763 275.461 158.919 276.304 155.347 277.864C151.776 279.424 148.547 281.671 145.845 284.478C143.143 287.285 141.021 290.596 139.601 294.222C128.379 322.829 146.168 358.747 146.168 358.747C146.168 358.747 183.642 344.466 194.864 315.859C196.29 312.234 196.987 308.364 196.916 304.47C196.844 300.575 196.005 296.733 194.447 293.163C192.888 289.592 190.641 286.364 187.834 283.662C185.026 280.959 181.713 278.835 178.084 277.413L178.061 277.422ZM135.528 178.466C136.95 174.84 137.643 170.969 137.568 167.076C137.492 163.182 136.649 159.342 135.088 155.773C133.526 152.205 131.276 148.979 128.466 146.28C125.656 143.581 122.342 141.461 118.712 140.042C90.0775 128.831 54.1299 146.603 54.1299 146.603C54.1299 146.603 68.42 184.041 97.0586 195.253C100.688 196.675 104.563 197.369 108.461 197.295C112.36 197.221 116.205 196.38 119.778 194.821C123.351 193.261 126.582 191.014 129.285 188.207C131.988 185.4 134.111 182.088 135.533 178.461L135.528 178.466Z" fill="#D7F3BE"/>
<path opacity="0.3" d="M207.498 415C200.616 415 194.015 412.266 189.149 407.4C184.283 402.533 181.549 395.933 181.549 389.051C181.549 362.158 207.498 338.564 207.498 338.564C207.498 338.564 233.447 362.158 233.447 389.051C233.446 395.933 230.711 402.532 225.845 407.399C220.979 412.265 214.38 414.999 207.498 415ZM207.498 0C200.616 0 194.015 2.73389 189.149 7.6003C184.283 12.4667 181.549 19.067 181.549 25.9491C181.549 52.8421 207.498 76.4361 207.498 76.4361C207.498 76.4361 233.447 52.8421 233.447 25.9491C233.447 19.067 230.713 12.4667 225.847 7.6003C220.98 2.73389 214.38 0 207.498 0ZM354.223 317.524C335.206 298.504 300.173 300.174 300.173 300.174C300.173 300.174 298.504 335.206 317.524 354.223C322.392 359.089 328.992 361.823 335.875 361.823C342.758 361.823 349.36 359.089 354.227 354.223C356.636 351.812 358.547 348.951 359.85 345.802C361.153 342.654 361.824 339.279 361.823 335.871C361.822 332.464 361.15 329.09 359.845 325.942C358.54 322.794 356.628 319.933 354.218 317.524H354.223ZM60.773 60.773C55.9062 65.6402 53.1722 72.2416 53.1722 79.1246C53.1722 86.0076 55.9062 92.6085 60.773 97.4757C79.7936 116.492 114.822 114.827 114.822 114.827C114.822 114.827 116.492 79.7935 97.4713 60.7775C92.6048 55.9114 86.0049 53.1775 79.123 53.1766C72.2411 53.1758 65.6407 55.9082 60.773 60.773ZM389.046 181.549C362.154 181.549 338.559 207.498 338.559 207.498C338.559 207.498 362.154 233.447 389.046 233.447C392.454 233.448 395.829 232.777 398.978 231.473C402.127 230.169 404.988 228.258 407.398 225.848C409.808 223.439 411.72 220.578 413.024 217.429C414.329 214.281 415 210.906 415 207.498C415 204.09 414.329 200.715 413.024 197.566C411.72 194.418 409.808 191.557 407.398 189.147C404.988 186.738 402.127 184.826 398.978 183.523C395.829 182.219 392.454 181.548 389.046 181.549ZM0 207.498C0 214.38 2.73389 220.98 7.6003 225.847C12.4667 230.713 19.067 233.447 25.9491 233.447C52.8421 233.447 76.4361 207.498 76.4361 207.498C76.4361 207.498 52.8421 181.549 25.9491 181.549C19.067 181.549 12.4667 184.283 7.6003 189.149C2.73389 194.015 0 200.616 0 207.498ZM317.524 60.773C298.508 79.7891 300.173 114.822 300.173 114.822C300.173 114.822 335.206 116.492 354.223 97.4713C359.089 92.604 361.823 86.0032 361.823 79.1202C361.823 72.2372 359.089 65.6358 354.223 60.7686C349.355 55.9037 342.754 53.1713 335.872 53.1722C328.99 53.173 322.391 55.907 317.524 60.773ZM60.773 354.223C65.6402 359.089 72.2416 361.823 79.1246 361.823C86.0076 361.823 92.6085 359.089 97.4757 354.223C116.492 335.206 114.826 300.174 114.826 300.174C114.826 300.174 79.7935 298.504 60.7775 317.524C58.3675 319.934 56.4557 322.794 55.1512 325.942C53.8467 329.09 53.1754 332.464 53.1749 335.872C53.1745 339.28 53.8452 342.655 55.149 345.803C56.4527 348.952 58.3637 351.813 60.773 354.223Z" fill="#71AC3D"/>
</svg>
