<svg width="160" height="70" viewBox="0 0 160 70" fill="none" xmlns="http://www.w3.org/2000/svg">
<g clip-path="url(#clip0)">
<path d="M40.0711 23.2007C39.4695 22.938 38.9255 22.5594 38.4703 22.0864C38.0151 21.6134 37.6576 21.0553 37.4182 20.4441C37.1787 19.8328 37.062 19.1803 37.0748 18.524C37.0876 17.8676 37.2296 17.2203 37.4927 16.6189C39.566 11.8738 45.9642 9.71094 45.9642 9.71094C45.9642 9.71094 48.7248 15.875 46.653 20.6208C46.3904 21.2225 46.0118 21.7665 45.5388 22.2218C45.0659 22.6772 44.5078 23.0348 43.8966 23.2744C43.2854 23.514 42.6329 23.6308 41.9765 23.6182C41.3202 23.6055 40.6727 23.4637 40.0711 23.2007ZM49.7595 46.8229C54.5046 48.8962 60.6694 46.134 60.6694 46.134C60.6694 46.134 58.5073 39.7358 53.7614 37.6626C53.16 37.3996 52.5126 37.2577 51.8563 37.2449C51.2 37.2322 50.5476 37.3488 49.9363 37.5883C49.3251 37.8277 48.7671 38.1853 48.2941 38.6404C47.8211 39.0956 47.4423 39.6394 47.1796 40.241C46.9167 40.8425 46.775 41.4899 46.7624 42.1462C46.7498 42.8025 46.8666 43.4548 47.1062 44.066C47.3458 44.6771 47.7035 45.235 48.1587 45.7079C48.614 46.1808 49.1579 46.5595 49.7595 46.8221V46.8229ZM37.4223 53.2853C39.3119 58.107 45.6221 60.514 45.6221 60.514C45.6221 60.514 48.6177 54.4609 46.728 49.6385C46.4889 49.0272 46.1316 48.4692 45.6766 47.996C45.2217 47.5228 44.678 47.1439 44.0765 46.881C43.4751 46.618 42.8278 46.4761 42.1715 46.4634C41.5152 46.4506 40.8629 46.5673 40.2517 46.8068C39.6405 47.0463 39.0825 47.4038 38.6095 47.8589C38.1365 48.3141 37.7579 48.8581 37.4951 49.4596C37.2324 50.0611 37.0907 50.7085 37.0782 51.3648C37.0657 52.0211 37.1826 52.6735 37.4223 53.2846V53.2853ZM53.8892 32.9603C58.7109 31.0707 61.1179 24.7605 61.1179 24.7605C61.1179 24.7605 55.0649 21.765 50.2432 23.6546C49.632 23.8939 49.0739 24.2511 48.6008 24.7061C48.1277 25.1611 47.7489 25.7048 47.4859 26.3062C47.2229 26.9076 47.0811 27.5549 47.0683 28.2111C47.0555 28.8674 47.1721 29.5197 47.4114 30.1309C47.651 30.742 48.0086 31.3 48.4638 31.7729C48.919 32.2458 49.4629 32.6244 50.0644 32.887C50.666 33.1497 51.3134 33.2913 51.9696 33.3037C52.6259 33.3162 53.2782 33.1992 53.8892 32.9595V32.9603ZM30.1585 23.2015C30.7601 22.9388 31.304 22.5601 31.7592 22.0871C32.2144 21.6141 32.572 21.056 32.8115 20.4448C33.0509 19.8336 33.1676 19.1812 33.1548 18.5248C33.142 17.8685 33 17.2211 32.7369 16.6196C30.6636 11.8745 24.2654 9.71168 24.2654 9.71168C24.2654 9.71168 21.5048 15.8757 23.5766 20.6216C23.8392 21.2232 24.2178 21.7673 24.6908 22.2226C25.1638 22.6779 25.7219 23.0355 26.3331 23.275C26.9443 23.5145 27.5968 23.6313 28.2532 23.6185C28.9095 23.6058 29.557 23.4638 30.1585 23.2007V23.2015ZM23.0485 40.2432C22.7857 39.6417 22.407 39.0978 21.934 38.6427C21.461 38.1875 20.9029 37.8301 20.2917 37.5906C19.6805 37.3512 19.028 37.2344 18.3717 37.2472C17.7154 37.2599 17.068 37.4019 16.4666 37.6649C11.7215 39.7382 9.55866 46.1364 9.55866 46.1364C9.55866 46.1364 15.7227 48.897 20.4685 46.8252C21.0703 46.5626 21.6145 46.1838 22.0698 45.7108C22.5252 45.2378 22.8829 44.6797 23.1225 44.0684C23.3621 43.4571 23.4789 42.8045 23.4662 42.1481C23.4535 41.4916 23.3115 40.8441 23.0485 40.2425V40.2432ZM29.9779 46.8099C29.3667 46.5705 28.7143 46.4539 28.0581 46.4666C27.4019 46.4794 26.7546 46.6214 26.1532 46.8843C25.5518 47.1473 25.008 47.5261 24.5531 47.9992C24.0981 48.4723 23.7408 49.0304 23.5016 49.6416C21.612 54.4632 24.6074 60.5171 24.6074 60.5171C24.6074 60.5171 30.9176 58.1101 32.8073 53.2884C33.0474 52.6774 33.1648 52.0251 33.1527 51.3687C33.1407 50.7124 32.9994 50.0647 32.737 49.463C32.4746 48.8612 32.0962 48.3171 31.6235 47.8616C31.1507 47.4061 30.5928 47.0481 29.9817 46.8083L29.9779 46.8099ZM22.8158 30.1309C23.0553 29.5198 23.172 28.8674 23.1593 28.2111C23.1465 27.5549 23.0046 26.9075 22.7417 26.3061C22.4787 25.7047 22.0998 25.161 21.6266 24.706C21.1535 24.2511 20.5954 23.8938 19.9841 23.6546C15.1625 21.765 9.10938 24.7605 9.10938 24.7605C9.10938 24.7605 11.5156 31.0707 16.338 32.9603C16.9492 33.2 17.6017 33.3171 18.2581 33.3046C18.9145 33.2921 19.5621 33.1503 20.1637 32.8875C20.7653 32.6247 21.3093 32.2459 21.7645 31.7728C22.2197 31.2996 22.5772 30.7414 22.8166 30.1301L22.8158 30.1309Z" fill="#F5F5F5"/>
<path opacity="0.5" d="M34.9996 69.9999C33.8387 69.9999 32.7254 69.5388 31.9046 68.7179C31.0838 67.8971 30.6226 66.7838 30.6226 65.623C30.6226 61.0868 34.9996 57.1071 34.9996 57.1071C34.9996 57.1071 39.3765 61.0868 39.3765 65.623C39.3763 66.7837 38.9151 67.897 38.0943 68.7178C37.2735 69.5386 36.1604 69.9997 34.9996 69.9999ZM34.9996 0C33.8387 0 32.7254 0.461137 31.9046 1.28198C31.0838 2.10282 30.6226 3.21611 30.6226 4.37696C30.6226 8.91311 34.9996 12.8928 34.9996 12.8928C34.9996 12.8928 39.3765 8.91311 39.3765 4.37696C39.3765 3.21611 38.9154 2.10282 38.0946 1.28198C37.2737 0.461137 36.1604 0 34.9996 0ZM59.7483 53.5583C56.5408 50.35 50.6315 50.6316 50.6315 50.6316C50.6315 50.6316 50.35 56.5408 53.5583 59.7483C54.3792 60.5692 55.4926 61.0304 56.6536 61.0304C57.8146 61.0304 58.9281 60.5692 59.7491 59.7483C60.1554 59.3418 60.4777 58.8592 60.6975 58.3281C60.9174 57.797 61.0304 57.2278 61.0303 56.653C61.0301 56.0782 60.9168 55.509 60.6967 54.978C60.4766 54.447 60.154 53.9646 59.7475 53.5583H59.7483ZM10.2509 10.2509C9.42995 11.0718 8.96879 12.1853 8.96879 13.3463C8.96879 14.5073 9.42995 15.6207 10.2509 16.4417C13.4592 19.6492 19.3675 19.3684 19.3675 19.3684C19.3675 19.3684 19.6492 13.4591 16.4409 10.2516C15.6201 9.43083 14.5068 8.96968 13.346 8.96954C12.1852 8.9694 11.0719 9.43028 10.2509 10.2509ZM65.6222 30.6226C61.0861 30.6226 57.1063 34.9996 57.1063 34.9996C57.1063 34.9996 61.0861 39.3765 65.6222 39.3765C66.1971 39.3766 66.7663 39.2635 67.2974 39.0436C67.8285 38.8237 68.3111 38.5013 68.7177 38.0948C69.1242 37.6884 69.4467 37.2059 69.6667 36.6748C69.8867 36.1437 69.9999 35.5744 69.9999 34.9996C69.9999 34.4247 69.8867 33.8555 69.6667 33.3244C69.4467 32.7933 69.1242 32.3108 68.7177 31.9043C68.3111 31.4979 67.8285 31.1755 67.2974 30.9556C66.7663 30.7357 66.1971 30.6225 65.6222 30.6226ZM0 34.9996C0 36.1604 0.461137 37.2737 1.28198 38.0946C2.10282 38.9154 3.21611 39.3765 4.37696 39.3765C8.91311 39.3765 12.8928 34.9996 12.8928 34.9996C12.8928 34.9996 8.91311 30.6226 4.37696 30.6226C3.21611 30.6226 2.10282 31.0838 1.28198 31.9046C0.461137 32.7254 0 33.8387 0 34.9996ZM53.5583 10.2509C50.3507 13.4584 50.6315 19.3675 50.6315 19.3675C50.6315 19.3675 56.5408 19.6492 59.7483 16.4409C60.5692 15.6199 61.0304 14.5066 61.0304 13.3456C61.0304 12.1846 60.5692 11.0711 59.7483 10.2501C58.9273 9.42954 57.8139 8.96865 56.6531 8.96879C55.4923 8.96894 54.3791 9.43008 53.5583 10.2509ZM10.2509 59.7483C11.0718 60.5692 12.1853 61.0304 13.3463 61.0304C14.5073 61.0304 15.6207 60.5692 16.4417 59.7483C19.6492 56.5408 19.3683 50.6316 19.3683 50.6316C19.3683 50.6316 13.4591 50.35 10.2516 53.5583C9.84511 53.9646 9.52263 54.4471 9.3026 54.9781C9.08256 55.5091 8.96933 56.0783 8.96926 56.6531C8.96919 57.2279 9.08232 57.7971 9.30223 58.3282C9.52213 58.8592 9.84446 59.3418 10.2509 59.7483Z" fill="#F5F5F5"/>
<path d="M94.6851 10.1387V23.8634H92.0831V12.2303H89.308V17.4958C89.308 22.0771 88.5471 24.1114 86.3613 24.1114C85.8299 24.1266 85.2989 24.069 84.7832 23.94V22.0205C85.0568 22.088 85.338 22.1199 85.6197 22.1154C86.418 22.1154 86.741 21.6975 86.741 16.7167V10.1394L94.6851 10.1387Z" fill="#F5F5F5"/>
<path d="M99.0912 10.1385V15.2708C99.1239 16.8928 99.016 18.5145 98.7683 20.1177H98.7874L102.59 10.1377H105.403V23.8626H102.97V18.6728C102.913 17.0756 103.021 15.4767 103.293 13.9017H103.274L99.4716 23.8626H96.6582V10.1377L99.0912 10.1385Z" fill="#F5F5F5"/>
<path d="M114.531 10.1385V12.2294H109.93V23.8626H107.328V10.1377L114.531 10.1385Z" fill="#F5F5F5"/>
<path d="M117.603 10.1387H121.101L124.142 23.8634H121.329L120.683 20.2893H117.737L116.919 23.8634H114.125L117.603 10.1387ZM120.359 18.2558L119.313 11.8683L118.059 18.2558H120.359Z" fill="#F5F5F5"/>
<path d="M85.2743 30.8025C85.2743 28.407 86.7758 26.6016 89.3611 26.6016C91.2048 26.6016 93.4671 27.4756 93.4671 30.2515C93.495 30.9123 93.3031 31.5637 92.9213 32.1038C92.5395 32.6439 91.9895 33.0422 91.3572 33.2363C92.7264 33.5784 93.6569 34.7004 93.6569 36.7722C93.6569 39.5274 92.1554 40.8973 89.4362 40.8973C87.193 40.8973 85.0645 39.871 85.0645 36.9245H87.5901C87.5901 37.875 87.9727 38.8064 89.2815 38.8064C90.5366 38.8064 90.9921 37.9508 90.9921 36.5257C90.9921 34.9101 90.1746 34.3208 89.0916 34.3208H88.5399V32.3631H89.0916C89.3248 32.3839 89.5598 32.3526 89.7794 32.2715C89.999 32.1904 90.1979 32.0615 90.3616 31.8942C90.5253 31.7268 90.6498 31.5252 90.726 31.3038C90.8022 31.0825 90.8282 30.8469 90.8022 30.6143C90.8022 29.702 90.4602 28.6947 89.3573 28.6947C88.331 28.6947 87.7983 29.5696 87.7983 30.8048L85.2743 30.8025Z" fill="#F5F5F5"/>
<path d="M102.771 26.8484V28.9393H98.0373V32.1322H102.352V34.2232H98.0373V38.4815H102.771V40.5724H95.4336V26.8477L102.771 26.8484Z" fill="#F5F5F5"/>
<path d="M114.066 26.8486V40.5734H111.464V28.9403H108.688V34.2058C108.688 38.7871 107.928 40.8214 105.741 40.8214C105.21 40.8364 104.68 40.7788 104.164 40.6499V38.7298C104.438 38.7973 104.719 38.8291 105.001 38.8246C105.799 38.8246 106.122 38.4067 106.122 33.4259V26.8486H114.066Z" fill="#F5F5F5"/>
<path d="M123.376 26.8484V28.9393H118.643V32.1322H122.958V34.2232H118.643V38.4815H123.376V40.5724H116.039V26.8477L123.376 26.8484Z" fill="#F5F5F5"/>
<path d="M127.678 32.1334H131.122V26.8525H133.725V40.5773H131.122V34.225H127.678V40.5773H125.076V26.8525H127.678V32.1334Z" fill="#F5F5F5"/>
<path d="M138.249 32.1333H140.435C142.564 32.1333 143.932 34.2434 143.932 36.1827C143.932 38.8247 142.735 40.5742 140.663 40.5742H135.645V26.8494H138.247L138.249 32.1333ZM138.249 38.6157H139.747C140.716 38.6157 141.268 38.0264 141.268 36.4865C141.268 35.1365 140.716 34.2242 139.747 34.2242H138.245L138.249 38.6157ZM148.514 40.5734H145.912V26.8486H148.514V40.5734Z" fill="#F5F5F5"/>
<path d="M153.21 26.8486L154.978 31.3159L156.841 26.8486H159.768L156.385 33.5209L159.882 40.5734H156.974L154.978 35.5168L152.906 40.5734H150.055L153.362 33.5209L150.188 26.8486H153.21Z" fill="#F5F5F5"/>
<path d="M92.7454 43.5584V45.5161H88.0691V48.843H90.2551C92.3843 48.843 93.7525 50.9531 93.7525 52.8917C93.7525 55.5344 92.5548 57.2824 90.4831 57.2824H85.4648V43.5576L92.7454 43.5584ZM88.0691 55.3254H89.5709C90.5405 55.3254 91.0916 54.7361 91.0916 53.1963C91.0916 51.847 90.5405 50.934 89.5709 50.934H88.0691V55.3254Z" fill="#F5F5F5"/>
<path d="M98.1333 57.2834H95.5312V43.5586H100.455C102.679 43.5586 104.066 45.3641 104.066 47.5698C104.066 49.8321 102.641 51.6949 100.416 51.6949H98.1357L98.1333 57.2834ZM98.1333 49.6606H99.4444C100.756 49.6606 101.402 48.919 101.402 47.6073C101.441 47.3386 101.417 47.0648 101.333 46.8067C101.25 46.5486 101.108 46.3131 100.919 46.1184C100.73 45.9238 100.498 45.7752 100.243 45.6839C99.9871 45.5927 99.7141 45.5612 99.4444 45.5921H98.1333V49.6606Z" fill="#F5F5F5"/>
<path d="M113.177 43.5586V45.6495H108.444V48.8433H112.759V50.9342H108.444V55.1925H113.177V57.2834H105.84V43.5586H113.177Z" fill="#F5F5F5"/>
<path d="M117.479 48.8433H120.923V43.5625H123.525V57.2873H120.923V50.935H117.479V57.2873H114.877V43.5625H117.479V48.8433Z" fill="#F5F5F5"/>
<path d="M135.036 43.5584V55.1915H135.873V60.0392H133.363V57.284H127.68V60.0392H125.17V55.1915H125.987C126.9 53.1764 127.242 51.6174 127.242 47.8351V43.5576L135.036 43.5584ZM129.808 45.6493V48.7665C129.808 51.922 129.37 53.481 128.572 55.1954H132.431V45.6524L129.808 45.6493Z" fill="#F5F5F5"/>
<path d="M141.829 43.3115C144.47 43.3115 146.238 44.5093 146.238 48.0069V52.9876C146.238 56.4852 144.47 57.6072 141.829 57.6072C139.226 57.6072 137.361 56.447 137.361 52.9876V48.0069C137.361 44.5476 139.224 43.3115 141.829 43.3115ZM140.022 47.703V53.3106C140.022 54.7364 140.593 55.5155 141.829 55.5155C142.95 55.5155 143.577 54.7548 143.577 53.3106V47.7413C143.577 46.2779 142.95 45.4031 141.829 45.4031C140.593 45.4024 140.022 46.2389 140.022 47.703Z" fill="#F5F5F5"/>
<path d="M148.053 43.5581H152.863C153.314 43.5164 153.769 43.5741 154.196 43.7269C154.623 43.8797 155.011 44.1241 155.334 44.4428C155.656 44.7616 155.905 45.147 156.062 45.572C156.22 45.9971 156.283 46.4515 156.246 46.9034C156.246 48.2152 155.543 49.6785 154.403 49.9066C155.753 50.4576 156.437 51.4273 156.437 53.2144C156.437 55.5869 155.411 57.2821 153.299 57.2821H148.053L148.053 43.5581ZM150.656 49.1275H152.024C153.164 49.1275 153.64 48.4432 153.64 47.2646C153.64 46.1051 153.241 45.5158 152.062 45.5158H150.656V49.1275ZM150.656 55.3267H152.329C153.298 55.3267 153.774 54.7374 153.774 53.1976C153.774 51.8483 153.298 51.0875 152.329 51.0875H150.656V55.3267Z" fill="#F5F5F5"/>
</g>
<defs>
<clipPath id="clip0">
<rect width="159.883" height="70" fill="white"/>
</clipPath>
</defs>
</svg>
