<svg width="107" height="107" viewBox="0 0 107 107" fill="none" xmlns="http://www.w3.org/2000/svg">
<path d="M61.7521 35.4634C60.8325 35.0619 60.001 34.483 59.3051 33.76C58.6093 33.037 58.0629 32.1839 57.6968 31.2496C57.3308 30.3153 57.1525 29.3179 57.172 28.3147C57.1916 27.3114 57.4087 26.3219 57.8108 25.4025C60.98 18.1493 70.7601 14.8433 70.7601 14.8433C70.7601 14.8433 74.9799 24.2654 71.813 31.5198C71.4115 32.4395 70.8328 33.2711 70.1099 33.9671C69.3869 34.6631 68.5339 35.2097 67.5996 35.576C66.6653 35.9422 65.668 36.1208 64.6647 36.1015C63.6613 36.0822 62.6716 35.8653 61.7521 35.4634ZM76.5615 71.5716C83.8147 74.7407 93.238 70.5186 93.238 70.5186C93.238 70.5186 89.9331 60.7385 82.6788 57.5693C81.7594 57.1674 80.7699 56.9505 79.7666 56.931C78.7634 56.9115 77.7661 57.0898 76.8318 57.4558C75.8975 57.8218 75.0446 58.3684 74.3216 59.0641C73.5985 59.7598 73.0196 60.5912 72.6179 61.5107C72.2161 62.4301 71.9995 63.4197 71.9802 64.4229C71.961 65.4261 72.1395 66.4233 72.5058 67.3575C72.872 68.2916 73.4187 69.1444 74.1146 69.8673C74.8105 70.5902 75.6419 71.1689 76.5615 71.5704V71.5716ZM57.7031 81.4499C60.5915 88.8201 70.2371 92.4995 70.2371 92.4995C70.2371 92.4995 74.8161 83.2468 71.9277 75.8755C71.5621 74.9411 71.016 74.088 70.3205 73.3648C69.6251 72.6415 68.794 72.0624 67.8747 71.6604C66.9554 71.2584 65.9659 71.0415 64.9627 71.022C63.9595 71.0026 62.9624 71.181 62.0282 71.547C61.0939 71.913 60.2409 72.4595 59.5179 73.1553C58.7949 73.851 58.2161 74.6825 57.8145 75.602C57.4129 76.5215 57.1963 77.511 57.1772 78.5143C57.1581 79.5175 57.3368 80.5147 57.7031 81.4488V81.4499ZM82.8741 50.3816C90.2443 47.4932 93.9236 37.8476 93.9236 37.8476C93.9236 37.8476 84.6711 33.2688 77.3009 36.1572C76.3667 36.5229 75.5136 37.069 74.7904 37.7645C74.0672 38.4599 73.4881 39.2911 73.0861 40.2103C72.6842 41.1296 72.4673 42.119 72.4478 43.1222C72.4283 44.1253 72.6064 45.1225 72.9723 46.0567C73.3385 46.9908 73.8851 47.8437 74.5809 48.5665C75.2767 49.2894 76.1081 49.8681 77.0276 50.2696C77.9471 50.6712 78.9367 50.8875 79.9399 50.9066C80.943 50.9256 81.9401 50.7468 82.8741 50.3805V50.3816ZM46.5999 35.4646C47.5195 35.063 48.3509 34.4842 49.0467 33.7612C49.7426 33.0381 50.2892 32.1851 50.6552 31.2508C51.0212 30.3164 51.1996 29.3192 51.18 28.3159C51.1604 27.3127 50.9434 26.323 50.5412 25.4037C47.372 18.1505 37.5919 14.8444 37.5919 14.8444C37.5919 14.8444 33.3722 24.2666 36.539 31.521C36.9405 32.4407 37.5191 33.2723 38.2421 33.9682C38.9651 34.6642 39.8182 35.2108 40.7525 35.577C41.6869 35.9431 42.6842 36.1215 43.6875 36.1021C44.6908 36.0826 45.6805 35.8655 46.5999 35.4634V35.4646ZM35.7317 61.5141C35.33 60.5946 34.7512 59.7633 34.0282 59.0675C33.3051 58.3718 32.4521 57.8254 31.5178 57.4594C30.5835 57.0934 29.5862 56.915 28.583 56.9344C27.5797 56.9539 26.5902 57.1709 25.6708 57.5729C18.4176 60.7421 15.1116 70.5222 15.1116 70.5222C15.1116 70.5222 24.5337 74.742 31.7881 71.5751C32.708 71.1737 33.5397 70.5948 34.2358 69.8717C34.9319 69.1487 35.4786 68.2956 35.8448 67.3612C36.2111 66.4267 36.3896 65.4293 36.3702 64.4258C36.3508 63.4223 36.1338 62.4325 35.7317 61.513V61.5141ZM46.3239 71.5517C45.3896 71.1858 44.3924 71.0075 43.3893 71.027C42.3862 71.0466 41.3968 71.2636 40.4775 71.6655C39.5582 72.0675 38.7271 72.6465 38.0316 73.3696C37.3362 74.0928 36.7901 74.9459 36.4243 75.8802C33.5359 83.2504 38.1147 92.5042 38.1147 92.5042C38.1147 92.5042 47.7603 88.8249 50.6488 81.4546C51.0158 80.5207 51.1953 79.5236 51.1769 78.5203C51.1584 77.5169 50.9425 76.527 50.5414 75.6071C50.1403 74.6873 49.5619 73.8555 48.8392 73.1593C48.1166 72.463 47.2638 71.9159 46.3297 71.5493L46.3239 71.5517ZM35.3761 46.0567C35.7422 45.1225 35.9205 44.1253 35.9011 43.1222C35.8816 42.119 35.6647 41.1295 35.2627 40.2102C34.8608 39.2909 34.2816 38.4597 33.5583 37.7643C32.8351 37.0689 31.982 36.5228 31.0477 36.1572C23.6775 33.2688 14.4248 37.8476 14.4248 37.8476C14.4248 37.8476 18.103 47.4932 25.4743 50.3816C26.4086 50.7481 27.4059 50.9269 28.4093 50.9078C29.4127 50.8887 30.4025 50.6721 31.3221 50.2703C32.2418 49.8686 33.0733 49.2896 33.7691 48.5664C34.4649 47.8432 35.0113 46.9899 35.3773 46.0554L35.3761 46.0567Z" fill="#71AC3D"/>
<path opacity="0.5" d="M53.4994 107C51.725 107 50.0232 106.295 48.7685 105.04C47.5138 103.786 46.8089 102.084 46.8089 100.31C46.8089 93.3757 53.4994 87.2924 53.4994 87.2924C53.4994 87.2924 60.1899 93.3757 60.1899 100.31C60.1896 102.084 59.4846 103.785 58.2299 105.04C56.9753 106.295 55.2738 107 53.4994 107ZM53.4994 0C51.725 0 50.0232 0.704882 48.7685 1.95959C47.5138 3.21431 46.8089 4.91607 46.8089 6.6905C46.8089 13.6243 53.4994 19.7076 53.4994 19.7076C53.4994 19.7076 60.1899 13.6243 60.1899 6.6905C60.1899 4.91607 59.485 3.21431 58.2303 1.95959C56.9756 0.704882 55.2739 0 53.4994 0ZM91.3297 81.8677C86.4267 76.9636 77.394 77.3941 77.394 77.3941C77.394 77.3941 76.9636 86.4267 81.8677 91.3297C83.1226 92.5845 84.8245 93.2894 86.5992 93.2894C88.3738 93.2894 90.0759 92.5845 91.3308 91.3297C91.9519 90.7082 92.4445 89.9705 92.7806 89.1587C93.1166 88.3469 93.2895 87.4768 93.2893 86.5982C93.289 85.7196 93.1157 84.8496 92.7793 84.0379C92.4429 83.2263 91.9498 82.4888 91.3284 81.8677H91.3297ZM15.6692 15.6692C14.4144 16.9241 13.7095 18.6262 13.7095 20.4008C13.7095 22.1755 14.4144 23.8774 15.6692 25.1323C20.5733 30.0352 29.6047 29.606 29.6047 29.606C29.6047 29.606 30.0353 20.5733 25.1311 15.6703C23.8764 14.4157 22.1748 13.7108 20.4004 13.7106C18.626 13.7104 16.9242 14.4149 15.6692 15.6692ZM100.308 46.8089C93.3745 46.8089 87.2912 53.4994 87.2912 53.4994C87.2912 53.4994 93.3745 60.1899 100.308 60.1899C101.187 60.1901 102.057 60.0171 102.869 59.681C103.681 59.3448 104.419 58.852 105.04 58.2308C105.661 57.6095 106.154 56.8719 106.491 56.0601C106.827 55.2483 107 54.3781 107 53.4994C107 52.6207 106.827 51.7506 106.491 50.9388C106.154 50.127 105.661 49.3894 105.04 48.7681C104.419 48.1468 103.681 47.6541 102.869 47.3179C102.057 46.9817 101.187 46.8088 100.308 46.8089ZM0 53.4994C0 55.2739 0.704882 56.9756 1.95959 58.2303C3.21431 59.485 4.91607 60.1899 6.6905 60.1899C13.6243 60.1899 19.7076 53.4994 19.7076 53.4994C19.7076 53.4994 13.6243 46.8089 6.6905 46.8089C4.91607 46.8089 3.21431 47.5138 1.95959 48.7685C0.704882 50.0232 0 51.725 0 53.4994ZM81.8677 15.6692C76.9648 20.5721 77.394 29.6047 77.394 29.6047C77.394 29.6047 86.4267 30.0353 91.3297 25.1311C92.5845 23.8762 93.2894 22.1743 93.2894 20.3997C93.2894 18.625 92.5845 16.923 91.3297 15.668C90.0746 14.4137 88.3727 13.7092 86.5983 13.7095C84.824 13.7097 83.1224 14.4146 81.8677 15.6692ZM15.6692 91.3297C16.9241 92.5845 18.6262 93.2894 20.4008 93.2894C22.1755 93.2894 23.8774 92.5845 25.1323 91.3297C30.0352 86.4267 29.6059 77.3941 29.6059 77.3941C29.6059 77.3941 20.5733 76.9636 15.6703 81.8677C15.049 82.4889 14.556 83.2264 14.2197 84.0381C13.8834 84.8498 13.7103 85.7197 13.7102 86.5983C13.7101 87.477 13.883 88.3471 14.2191 89.1589C14.5553 89.9706 15.048 90.7083 15.6692 91.3297Z" fill="#71AC3D"/>
</svg>
