<svg width="182" height="182" viewBox="0 0 182 182" fill="none" xmlns="http://www.w3.org/2000/svg">
<path d="M108.348 48.3238C106.243 47.3827 104.339 46.0263 102.746 44.3318C101.153 42.6374 99.9024 40.6383 99.0645 38.4487C98.2265 36.259 97.8182 33.9217 97.863 31.5705C97.9078 29.2193 98.4047 26.9004 99.3254 24.7459C106.581 7.74783 128.971 0 128.971 0C128.971 0 138.631 22.081 131.381 39.0819C130.462 41.2372 129.137 43.1861 127.482 44.8171C125.827 46.4482 123.874 47.7292 121.735 48.5875C119.596 49.4458 117.313 49.8644 115.016 49.8191C112.719 49.7738 110.453 49.2657 108.348 48.3238ZM142.252 132.944C158.857 140.371 180.43 130.476 180.43 130.476C180.43 130.476 172.864 107.557 156.257 100.129C154.152 99.1874 151.887 98.6792 149.59 98.6335C147.293 98.5879 145.01 99.0057 142.871 99.8634C140.732 100.721 138.779 102.002 137.124 103.632C135.469 105.263 134.143 107.211 133.224 109.366C132.304 111.521 131.808 113.84 131.764 116.191C131.72 118.542 132.129 120.879 132.967 123.068C133.806 125.257 135.057 127.256 136.65 128.95C138.243 130.644 140.147 132 142.252 132.941V132.944ZM99.0789 156.094C105.691 173.366 127.773 181.989 127.773 181.989C127.773 181.989 138.256 160.305 131.644 143.03C130.807 140.841 129.556 138.841 127.964 137.146C126.372 135.451 124.47 134.094 122.365 133.152C120.26 132.21 117.995 131.702 115.699 131.656C113.402 131.611 111.119 132.029 108.98 132.886C106.842 133.744 104.889 135.025 103.234 136.655C101.578 138.286 100.253 140.234 99.3339 142.389C98.4144 144.544 97.9185 146.863 97.8748 149.214C97.831 151.565 98.2402 153.902 99.0789 156.091V156.094ZM156.704 83.2848C173.577 76.5158 182 53.9111 182 53.9111C182 53.9111 160.818 43.1805 143.945 49.9496C141.806 50.8067 139.853 52.0865 138.197 53.7163C136.542 55.3461 135.216 57.2939 134.296 59.4482C133.376 61.6026 132.879 63.9214 132.834 66.2722C132.79 68.623 133.198 70.96 134.035 73.1493C134.874 75.3385 136.125 77.3371 137.718 79.0312C139.311 80.7252 141.214 82.0815 143.319 83.0225C145.424 83.9634 147.69 84.4705 149.986 84.5151C152.283 84.5597 154.565 84.1407 156.704 83.2822V83.2848ZM73.6598 48.3265C75.7651 47.3854 77.6685 46.0289 79.2615 44.3345C80.8544 42.6401 82.1058 40.6409 82.9437 38.4513C83.7816 36.2617 84.19 33.9247 84.1452 31.5735C84.1004 29.2223 83.6035 26.9031 82.6828 24.7486C75.4275 7.75051 53.0375 0.00267737 53.0375 0.00267737C53.0375 0.00267737 43.377 22.0837 50.627 39.0845C51.546 41.2399 52.8708 43.1888 54.526 44.8198C56.1811 46.4507 58.1341 47.7318 60.2731 48.5898C62.4122 49.4479 64.6953 49.8661 66.9923 49.8204C69.2892 49.7748 71.5549 49.2661 73.6598 48.3238V48.3265ZM48.7788 109.374C47.8592 107.219 46.5341 105.271 44.8788 103.641C43.2235 102.01 41.2706 100.73 39.1317 99.8718C36.9928 99.0141 34.7096 98.5959 32.4128 98.6415C30.1161 98.6872 27.8508 99.1958 25.746 100.138C9.14093 107.565 1.57222 130.485 1.57222 130.485C1.57222 130.485 23.1428 140.374 39.7505 132.952C41.8564 132.011 43.7606 130.655 45.3542 128.96C46.9478 127.266 48.1993 125.267 49.0378 123.077C49.8762 120.887 50.285 118.549 50.2405 116.198C50.1961 113.846 49.6994 111.526 48.7788 109.371V109.374ZM73.0278 132.897C70.8891 132.04 68.6061 131.622 66.3096 131.668C64.0132 131.714 61.748 132.222 59.6435 133.164C57.5389 134.106 55.6362 135.463 54.0441 137.158C52.452 138.853 51.2017 140.852 50.3644 143.041C43.7519 160.314 54.2344 182 54.2344 182C54.2344 182 76.3164 173.377 82.929 156.105C83.7692 153.916 84.1802 151.58 84.138 149.228C84.0958 146.877 83.6014 144.557 82.6831 142.401C81.7649 140.246 80.4408 138.297 78.7864 136.665C77.132 135.033 75.1798 133.751 73.0412 132.892L73.0278 132.897ZM47.9648 73.1493C48.8027 70.96 49.2111 68.6231 49.1666 66.2722C49.122 63.9212 48.6254 61.6023 47.7052 59.4479C46.7849 57.2935 45.459 55.3457 43.8032 53.716C42.1474 52.0863 40.1945 50.8064 38.0554 49.9496C21.1825 43.1805 0 53.9111 0 53.9111C0 53.9111 8.42057 76.5158 25.2962 83.2848C27.435 84.1437 29.7182 84.5628 32.0153 84.5181C34.3124 84.4734 36.5784 83.9657 38.6838 83.0241C40.7892 82.0826 42.6929 80.7257 44.2858 79.0308C45.8787 77.336 47.1296 75.3363 47.9674 73.1463L47.9648 73.1493Z" fill="#71AC3D"/>
</svg>
