<svg width="36" height="28" viewBox="0 0 36 28" fill="none" xmlns="http://www.w3.org/2000/svg">
<path d="M32.8338 2.358C34.8938 4.546 35.9998 7 35.9998 10.978C35.9998 17.978 31.0858 24.252 23.9398 27.354L22.1538 24.598C28.8238 20.99 30.1278 16.308 30.6478 13.356C29.5738 13.912 28.1678 14.106 26.7898 13.978C23.1818 13.644 20.3378 10.682 20.3378 7C20.3378 5.14348 21.0753 3.36301 22.3881 2.05025C23.7008 0.737498 25.4813 0 27.3378 0C29.4838 0 31.5358 0.98 32.8338 2.358ZM12.8338 2.358C14.8938 4.546 15.9998 7 15.9998 10.978C15.9998 17.978 11.0858 24.252 3.93984 27.354L2.15384 24.598C8.82384 20.99 10.1278 16.308 10.6478 13.356C9.57384 13.912 8.16784 14.106 6.78984 13.978C3.18184 13.644 0.339844 10.682 0.339844 7C0.339844 5.14348 1.07734 3.36301 2.3901 2.05025C3.70285 0.737498 5.48333 0 7.33984 0C9.48584 0 11.5378 0.98 12.8358 2.358H12.8338Z" fill="#224720"/>
</svg>
