<svg width="60" height="60" viewBox="0 0 60 60" fill="none" xmlns="http://www.w3.org/2000/svg">
	<mask id="vk1" mask-type="alpha" maskUnits="userSpaceOnUse" x="10" y="19" width="38" height="22">
		<path d="M47.2921 38.5587C47.3369 38.655 47.3819 38.8253 47.4275 39.0688C47.4721 39.313 47.4693 39.5315 47.4177 39.724C47.3661 39.9163 47.2059 40.0931 46.9362 40.2535C46.6671 40.4137 46.2876 40.4945 45.8 40.4945L40.8701 40.5714C40.5615 40.6355 40.2021 40.6034 39.792 40.4751C39.3811 40.3467 39.0472 40.2055 38.7901 40.0513L38.4051 39.8202C38.0201 39.5502 37.5708 39.1397 37.057 38.5876C36.5436 38.0356 36.1039 37.5384 35.738 37.0953C35.3719 36.6525 34.9804 36.28 34.5631 35.9783C34.1454 35.6763 33.7828 35.5769 33.4747 35.6795C33.4362 35.6927 33.3851 35.7146 33.3212 35.7469C33.2568 35.779 33.1472 35.8723 32.9932 36.0263C32.8396 36.1799 32.7016 36.3695 32.5793 36.5941C32.457 36.8189 32.3476 37.1527 32.2516 37.5955C32.1555 38.0384 32.1135 38.5358 32.1267 39.0878C32.1267 39.2801 32.1043 39.4569 32.0592 39.6174C32.0147 39.7776 31.9665 39.8966 31.9149 39.9732L31.8383 40.0698C31.607 40.3136 31.2667 40.4548 30.8175 40.4936H28.6028C27.6912 40.5446 26.754 40.4389 25.7911 40.1755C24.8281 39.9124 23.984 39.5721 23.2585 39.1552C22.5331 38.7376 21.872 38.314 21.2749 37.8837C20.6779 37.4537 20.2254 37.0846 19.9173 36.7764L19.4357 36.3143C19.3074 36.1859 19.1308 35.9937 18.9059 35.7366C18.6814 35.4799 18.2224 34.8957 17.5291 33.9841C16.8358 33.0728 16.1553 32.1033 15.4877 31.0761C14.8203 30.0496 14.0338 28.6948 13.1287 27.0129C12.2236 25.3311 11.3859 23.585 10.6156 21.7746C10.5385 21.5694 10.5 21.396 10.5 21.2548C10.5 21.1135 10.5194 21.0108 10.5579 20.9465L10.635 20.8311C10.8277 20.5871 11.1935 20.465 11.7328 20.465L17.0095 20.4266C17.1637 20.4522 17.3112 20.4938 17.4525 20.5517C17.5936 20.6097 17.6965 20.6641 17.7605 20.7154L17.8569 20.7733C18.0623 20.9146 18.2164 21.1198 18.319 21.3895C18.5757 22.0314 18.8709 22.696 19.205 23.383C19.5388 24.0697 19.8018 24.593 19.9944 24.9524L20.3025 25.511C20.6748 26.2813 21.0343 26.9489 21.3808 27.5138C21.7276 28.0786 22.039 28.5183 22.3151 28.833C22.5911 29.1476 22.8575 29.3946 23.1142 29.5744C23.3709 29.7543 23.589 29.8442 23.7689 29.8442C23.9486 29.8442 24.1221 29.8116 24.289 29.7477C24.3145 29.735 24.3466 29.7027 24.3851 29.6515C24.4237 29.6002 24.5007 29.459 24.6163 29.2279C24.7318 28.9968 24.8184 28.6951 24.8764 28.3228C24.9343 27.9505 24.995 27.4306 25.0593 26.7628C25.1234 26.0953 25.1234 25.2929 25.0593 24.3555C25.0338 23.8422 24.9759 23.3736 24.8861 22.95C24.7962 22.5264 24.7063 22.2309 24.6163 22.0641L24.5007 21.8328C24.1797 21.3963 23.6342 21.1202 22.8638 21.0048C22.6969 20.9794 22.7292 20.8252 22.9603 20.5427C23.1785 20.2989 23.4224 20.1062 23.692 19.9651C24.3725 19.6313 25.9068 19.4771 28.2947 19.5027C29.3477 19.5157 30.2143 19.599 30.8948 19.753C31.1512 19.8173 31.3667 19.904 31.5399 20.0131C31.7129 20.1223 31.8447 20.2763 31.9347 20.4753C32.0243 20.6744 32.0922 20.8799 32.1364 21.0916C32.1812 21.3035 32.2039 21.5955 32.2039 21.9679C32.2039 22.3402 32.1978 22.6934 32.1847 23.0272C32.1716 23.3607 32.1559 23.8134 32.1364 24.3847C32.1173 24.956 32.1078 25.4856 32.1078 25.9735C32.1078 26.1148 32.1018 26.3842 32.0885 26.7824C32.0755 27.1803 32.0727 27.4888 32.0787 27.7069C32.0852 27.9252 32.1078 28.1849 32.1461 28.4868C32.1847 28.7885 32.2583 29.039 32.3677 29.238C32.4767 29.437 32.6212 29.5942 32.8008 29.7098C32.9039 29.7354 33.0128 29.7611 33.1285 29.7869C33.2439 29.8127 33.4106 29.7421 33.629 29.575C33.8476 29.4079 34.0911 29.1867 34.361 28.9106C34.6304 28.6348 34.9642 28.2046 35.3621 27.6205C35.7605 27.0363 36.1968 26.3463 36.6719 25.5502C37.4424 24.215 38.1289 22.7707 38.7328 21.2172C38.784 21.0888 38.8482 20.9762 38.9249 20.8802C39.002 20.7839 39.0726 20.7165 39.1368 20.6782L39.2134 20.6202L39.3099 20.572C39.3099 20.572 39.3935 20.5526 39.5604 20.5141C39.7276 20.4755 39.8559 20.4725 39.9457 20.5043L45.4919 20.466C45.9928 20.4019 46.4035 20.4178 46.7248 20.5141C47.0454 20.6105 47.2444 20.7163 47.3215 20.8319L47.4362 21.0239C47.7317 21.8457 46.7687 23.7328 44.5474 26.6858C44.2394 27.0967 43.8223 27.6422 43.2957 28.3227C42.2946 29.6068 41.7164 30.4473 41.5625 30.8452C41.3446 31.372 41.4339 31.8918 41.8325 32.4054C42.0504 32.675 42.5707 33.2016 43.3923 33.9848H43.4117L43.431 34.0042L43.4502 34.0231L43.4884 34.0616C45.2987 35.7435 46.525 37.1622 47.1668 38.318C47.2055 38.3821 47.2473 38.4622 47.2921 38.5587Z" fill="white" />
	</mask>
	<g mask="url(#vk1)">
		<path fill-rule="evenodd" clip-rule="evenodd" d="M1.31738 12.312H55.9347V49.9155H1.31738V12.312Z" fill="#F5F5F5" />
	</g>
</svg>
